# xmcd
#
# Track frame offsets: 
#        150
#        21537
#        43002
#        71855
#        93759
#        115520
#        140370
#        159702
#        183495
#        202932
#        224563
#
# Disc length: 3353 seconds
#
# Revision: 0
# Processed by: cddbd v1.5.1PL2 Copyright (c) Steve Scherf et al.
# Submitted via: ExactAudioCopy v0.95b4
#
DISCID=9f0d170b
DTITLE=Boz Scaggs - Dig
DYEAR=2001
DGENRE=R&B
TTITLE0=Payday
TTITLE1=Sarah
TTITLE2=Miss Riddle
TTITLE3=I Just Go
TTITLE4=Get On The Natch
TTITLE5=Desire
TTITLE6=Call That Love
TTITLE7=King Of El Paso
TTITLE8=You're Not
TTITLE9=Vanishing Point
TTITLE10=Thanks To You
EXTD=
EXTT0=
EXTT1=
EXTT2=
EXTT3=
EXTT4=
EXTT5=
EXTT6=
EXTT7=
EXTT8=
EXTT9=
EXTT10=
PLAYORDER=
